<svg width="239" height="76" viewBox="0 0 239 76" fill="none" xmlns="http://www.w3.org/2000/svg">
<path fill-rule="evenodd" clip-rule="evenodd" d="M50.2361 13.3913C66.5667 19.3556 65.6649 39.7799 56.674 53.5396C51.5939 61.3049 43.933 66.9409 35.3377 66.6587C17.3803 66.0686 5.93943 46.5585 11.8984 30.1936C17.118 15.8827 36.047 8.2083 50.2361 13.3913ZM44 46L35.3377 46L35.3377 29L30.5 29L30.5 50L44 50L44 46Z" fill="#E8CDBF"/>
<path d="M93.7 29.03V33.2H83.26V37.52H92.65V41.51H83.26V45.86H94.03V50H78.58V29.03H93.7ZM126.829 39.32H131.539V46.76C129.459 49.08 126.579 50.24 122.899 50.24C119.819 50.24 117.229 49.22 115.129 47.18C113.049 45.14 112.009 42.57 112.009 39.47C112.009 36.35 113.069 33.75 115.189 31.67C117.329 29.59 119.899 28.55 122.899 28.55C125.919 28.55 128.539 29.54 130.759 31.52L128.329 35.03C127.389 34.21 126.519 33.65 125.719 33.35C124.939 33.03 124.089 32.87 123.169 32.87C121.389 32.87 119.889 33.48 118.669 34.7C117.449 35.9 116.839 37.49 116.839 39.47C116.839 41.45 117.419 43.04 118.579 44.24C119.759 45.42 121.159 46.01 122.779 46.01C124.399 46.01 125.749 45.7 126.829 45.08V39.32ZM165.473 50L163.523 45.47H154.733L152.783 50H147.803L156.863 29.03H161.393L170.453 50H165.473ZM159.143 35.27L156.503 41.36H161.753L159.143 35.27ZM194.49 32.66C193.71 32.66 193.09 32.85 192.63 33.23C192.19 33.59 191.97 34.08 191.97 34.7C191.97 35.3 192.24 35.78 192.78 36.14C193.34 36.5 194.61 36.93 196.59 37.43C198.59 37.91 200.14 38.64 201.24 39.62C202.34 40.6 202.89 42.03 202.89 43.91C202.89 45.79 202.18 47.32 200.76 48.5C199.36 49.66 197.51 50.24 195.21 50.24C191.89 50.24 188.9 49.01 186.24 46.55L189.03 43.13C191.29 45.11 193.38 46.1 195.3 46.1C196.16 46.1 196.83 45.92 197.31 45.56C197.81 45.18 198.06 44.68 198.06 44.06C198.06 43.42 197.8 42.92 197.28 42.56C196.76 42.18 195.73 41.8 194.19 41.42C191.75 40.84 189.96 40.09 188.82 39.17C187.7 38.23 187.14 36.77 187.14 34.79C187.14 32.79 187.85 31.25 189.27 30.17C190.71 29.09 192.5 28.55 194.64 28.55C196.04 28.55 197.44 28.79 198.84 29.27C200.24 29.75 201.46 30.43 202.5 31.31L200.13 34.73C198.31 33.35 196.43 32.66 194.49 32.66ZM230.755 50H226.075V41.72L218.815 29.03H223.885L228.415 36.83L232.945 29.03H238.015L230.755 41.72V50Z" fill="white"/>
</svg>
